<?xml version="1.0" encoding="UTF-8"?>
<svg version="1.1" xmlns="http://www.w3.org/2000/svg" width="64" height="64">
<path d="M0 0 C6.40864254 4.29140007 10.78868211 9.54440985 13 17 C14.25520915 25.96137026 13.43053456 33.61394447 8 41 C2.70113725 47.09780437 -4.03360829 51.44792135 -12.20773315 52.20428467 C-18.51273044 52.49726942 -24.81687098 52.36441849 -31.125 52.25 C-33.05466898 52.22990603 -34.98435815 52.21166039 -36.9140625 52.1953125 C-41.60987888 52.15154235 -46.30471403 52.08267468 -51 52 C-50.35861597 47.12548139 -49.34244589 44.66590839 -46 41 C-46.3609375 40.44054688 -46.721875 39.88109375 -47.09375 39.3046875 C-51.35520405 31.94184189 -52.17773618 25.40826404 -51 17 C-48.49622748 8.55838163 -43.21128498 3.25826167 -35.89453125 -1.31640625 C-25.54279927 -6.42991241 -9.81411867 -6.13610017 0 0 Z " fill="#37CCFE" transform="translate(51,8)"/>
<path d="M0 0 C2.625 0.375 2.625 0.375 5 1 C5.625 3.375 5.625 3.375 6 6 C5.34 6.66 4.68 7.32 4 8 C1.375 7.625 1.375 7.625 -1 7 C-1.625 4.625 -1.625 4.625 -2 2 C-1.34 1.34 -0.68 0.68 0 0 Z " fill="#EDF7FA" transform="translate(46,28)"/>
<path d="M0 0 C2.625 0.375 2.625 0.375 5 1 C5.625 3.375 5.625 3.375 6 6 C5.34 6.66 4.68 7.32 4 8 C1.375 7.625 1.375 7.625 -1 7 C-1.625 4.625 -1.625 4.625 -2 2 C-1.34 1.34 -0.68 0.68 0 0 Z " fill="#EDF7FA" transform="translate(30,28)"/>
<path d="M0 0 C2.625 0.375 2.625 0.375 5 1 C5.625 3.375 5.625 3.375 6 6 C5.34 6.66 4.68 7.32 4 8 C1.375 7.625 1.375 7.625 -1 7 C-1.625 4.625 -1.625 4.625 -2 2 C-1.34 1.34 -0.68 0.68 0 0 Z " fill="#EDF7FA" transform="translate(14,28)"/>
</svg>
